<svg xmlns="http://www.w3.org/2000/svg" width="20" height="12" viewBox="0 0 20 12" fill="none">
    <path
        d="M10 7.24249L3.80503 1.04749C3.47715 0.721556 3.03361 0.538609 2.57128 0.538609C2.10896 0.538609 1.66542 0.721556 1.33753 1.04749C1.17351 1.21018 1.04332 1.40373 0.954472 1.61699C0.865627 1.83024 0.819885 2.05897 0.819885 2.28999C0.819885 2.52101 0.865627 2.74975 0.954472 2.963C1.04332 3.17626 1.17351 3.36981 1.33753 3.53249L8.75753 10.9525C8.92022 11.1165 9.11377 11.2467 9.32702 11.3355C9.54027 11.4244 9.76901 11.4701 10 11.4701C10.2311 11.4701 10.4598 11.4244 10.673 11.3355C10.8863 11.2467 11.0798 11.1165 11.2425 10.9525L18.75 3.53249C18.9122 3.36897 19.0405 3.17505 19.1276 2.96183C19.2147 2.74861 19.2589 2.52031 19.2575 2.28999C19.2589 2.05968 19.2147 1.83137 19.1276 1.61816C19.0405 1.40494 18.9122 1.21101 18.75 1.04749C18.4221 0.721556 17.9786 0.538609 17.5163 0.538609C17.054 0.538609 16.6104 0.721556 16.2825 1.04749L10 7.24249Z"
        fill="#35E6E9" />
</svg>